<svg xmlns="http://www.w3.org/2000/svg" viewBox="0 0 206.149 200" fill="#5a6378">
  <polygon points="0 0 0 94.956 94.956 94.956 0 0"/>
  <polygon points="57.977 154.9 103.076 200 148.172 154.9 57.977 154.9"/>
  <polygon points="206.149 0 111.197 94.956 206.149 94.956 206.149 0"/>
  <polygon points="157.689 101.683 111.2 148.172 154.9 148.172 201.392 101.683 157.689 101.683"/>
  <polygon points="53.22 101.683 53.22 148.172 99.712 148.172 99.712 101.683 53.22 101.683"/>
  <polygon points="106.44 101.683 106.44 143.416 148.172 101.683 106.44 101.683"/>
  <polygon points="4.757 101.683 46.492 143.416 46.492 101.683 4.757 101.683"/>
</svg>